<mxfile host="65bd71144e">
    <diagram id="_CUqrX9coeGqUWHdb1A_" name="第 1 页">
        <mxGraphModel dx="1655" dy="1678" grid="1" gridSize="10" guides="1" tooltips="1" connect="1" arrows="1" fold="1" page="1" pageScale="1" pageWidth="1169" pageHeight="827" math="0" shadow="0">
            <root>
                <mxCell id="0"/>
                <mxCell id="1" parent="0"/>
                <mxCell id="54" value="" style="rounded=0;whiteSpace=wrap;html=1;fontSize=30;" parent="1" vertex="1">
                    <mxGeometry x="80" y="330" width="970" height="450" as="geometry"/>
                </mxCell>
                <mxCell id="23" value="" style="rounded=0;whiteSpace=wrap;html=1;fontSize=30;" parent="1" vertex="1">
                    <mxGeometry x="110" y="344" width="300" height="136" as="geometry"/>
                </mxCell>
                <mxCell id="2" value="10" style="rounded=0;whiteSpace=wrap;html=1;fontSize=30;" parent="1" vertex="1">
                    <mxGeometry x="140" y="23" width="120" height="60" as="geometry"/>
                </mxCell>
                <mxCell id="3" value="20" style="rounded=0;whiteSpace=wrap;html=1;fontSize=30;" parent="1" vertex="1">
                    <mxGeometry x="260" y="23" width="120" height="60" as="geometry"/>
                </mxCell>
                <mxCell id="4" value="&lt;font style=&quot;font-size: 30px;&quot;&gt;30&lt;/font&gt;" style="rounded=0;whiteSpace=wrap;html=1;" parent="1" vertex="1">
                    <mxGeometry x="380" y="23" width="120" height="60" as="geometry"/>
                </mxCell>
                <mxCell id="5" value="40" style="rounded=0;whiteSpace=wrap;html=1;fontSize=30;" parent="1" vertex="1">
                    <mxGeometry x="500" y="23" width="120" height="60" as="geometry"/>
                </mxCell>
                <mxCell id="6" value="50" style="rounded=0;whiteSpace=wrap;html=1;fontSize=30;" parent="1" vertex="1">
                    <mxGeometry x="620" y="23" width="120" height="60" as="geometry"/>
                </mxCell>
                <mxCell id="7" value="0" style="text;html=1;strokeColor=none;fillColor=none;align=center;verticalAlign=middle;whiteSpace=wrap;rounded=0;fontSize=30;" parent="1" vertex="1">
                    <mxGeometry x="165" y="-7" width="60" height="30" as="geometry"/>
                </mxCell>
                <mxCell id="8" value="1" style="text;html=1;strokeColor=none;fillColor=none;align=center;verticalAlign=middle;whiteSpace=wrap;rounded=0;fontSize=30;" parent="1" vertex="1">
                    <mxGeometry x="286" y="-5" width="60" height="30" as="geometry"/>
                </mxCell>
                <mxCell id="9" value="2" style="text;html=1;strokeColor=none;fillColor=none;align=center;verticalAlign=middle;whiteSpace=wrap;rounded=0;fontSize=30;" parent="1" vertex="1">
                    <mxGeometry x="400" y="-7" width="60" height="30" as="geometry"/>
                </mxCell>
                <mxCell id="10" value="3" style="text;html=1;strokeColor=none;fillColor=none;align=center;verticalAlign=middle;whiteSpace=wrap;rounded=0;fontSize=30;" parent="1" vertex="1">
                    <mxGeometry x="525" y="-7" width="60" height="30" as="geometry"/>
                </mxCell>
                <mxCell id="11" value="4" style="text;html=1;strokeColor=none;fillColor=none;align=center;verticalAlign=middle;whiteSpace=wrap;rounded=0;fontSize=30;" parent="1" vertex="1">
                    <mxGeometry x="650" y="-7" width="60" height="30" as="geometry"/>
                </mxCell>
                <mxCell id="12" value="60" style="rounded=0;whiteSpace=wrap;html=1;fontSize=30;" parent="1" vertex="1">
                    <mxGeometry x="740" y="24" width="120" height="60" as="geometry"/>
                </mxCell>
                <mxCell id="13" value="70" style="rounded=0;whiteSpace=wrap;html=1;fontSize=30;" parent="1" vertex="1">
                    <mxGeometry x="860" y="24" width="120" height="60" as="geometry"/>
                </mxCell>
                <mxCell id="14" value="5" style="text;html=1;strokeColor=none;fillColor=none;align=center;verticalAlign=middle;whiteSpace=wrap;rounded=0;fontSize=30;" parent="1" vertex="1">
                    <mxGeometry x="752" y="-7" width="60" height="30" as="geometry"/>
                </mxCell>
                <mxCell id="15" value="6" style="text;html=1;strokeColor=none;fillColor=none;align=center;verticalAlign=middle;whiteSpace=wrap;rounded=0;fontSize=30;" parent="1" vertex="1">
                    <mxGeometry x="880" y="-7" width="60" height="30" as="geometry"/>
                </mxCell>
                <mxCell id="16" value="" style="endArrow=none;html=1;fontSize=30;" parent="1" edge="1">
                    <mxGeometry width="50" height="50" relative="1" as="geometry">
                        <mxPoint y="240" as="sourcePoint"/>
                        <mxPoint x="1140" y="240" as="targetPoint"/>
                    </mxGeometry>
                </mxCell>
                <mxCell id="17" value="std::vector&amp;lt;int64_t&amp;gt; id_map;" style="text;whiteSpace=wrap;html=1;fontSize=30;" parent="1" vertex="1">
                    <mxGeometry x="70" y="-100" width="444" height="60" as="geometry"/>
                </mxCell>
                <mxCell id="19" value="10" style="rounded=0;whiteSpace=wrap;html=1;fontSize=30;" parent="1" vertex="1">
                    <mxGeometry x="120" y="390" width="120" height="60" as="geometry"/>
                </mxCell>
                <mxCell id="20" value="0" style="rounded=0;whiteSpace=wrap;html=1;fontSize=30;" parent="1" vertex="1">
                    <mxGeometry x="280" y="390" width="120" height="60" as="geometry"/>
                </mxCell>
                <mxCell id="21" value="key" style="text;html=1;strokeColor=none;fillColor=none;align=center;verticalAlign=middle;whiteSpace=wrap;rounded=0;fontSize=30;" parent="1" vertex="1">
                    <mxGeometry x="140" y="360" width="60" height="30" as="geometry"/>
                </mxCell>
                <mxCell id="22" value="value" style="text;html=1;strokeColor=none;fillColor=none;align=center;verticalAlign=middle;whiteSpace=wrap;rounded=0;fontSize=30;" parent="1" vertex="1">
                    <mxGeometry x="310" y="360" width="60" height="30" as="geometry"/>
                </mxCell>
                <mxCell id="24" value="" style="rounded=0;whiteSpace=wrap;html=1;fontSize=30;" parent="1" vertex="1">
                    <mxGeometry x="112" y="491" width="300" height="136" as="geometry"/>
                </mxCell>
                <mxCell id="25" value="20" style="rounded=0;whiteSpace=wrap;html=1;fontSize=30;" parent="1" vertex="1">
                    <mxGeometry x="122" y="537" width="120" height="60" as="geometry"/>
                </mxCell>
                <mxCell id="26" value="1" style="rounded=0;whiteSpace=wrap;html=1;fontSize=30;" parent="1" vertex="1">
                    <mxGeometry x="282" y="537" width="120" height="60" as="geometry"/>
                </mxCell>
                <mxCell id="27" value="key" style="text;html=1;strokeColor=none;fillColor=none;align=center;verticalAlign=middle;whiteSpace=wrap;rounded=0;fontSize=30;" parent="1" vertex="1">
                    <mxGeometry x="142" y="507" width="60" height="30" as="geometry"/>
                </mxCell>
                <mxCell id="28" value="value" style="text;html=1;strokeColor=none;fillColor=none;align=center;verticalAlign=middle;whiteSpace=wrap;rounded=0;fontSize=30;" parent="1" vertex="1">
                    <mxGeometry x="312" y="507" width="60" height="30" as="geometry"/>
                </mxCell>
                <mxCell id="29" value="" style="rounded=0;whiteSpace=wrap;html=1;fontSize=30;" parent="1" vertex="1">
                    <mxGeometry x="114" y="635" width="300" height="136" as="geometry"/>
                </mxCell>
                <mxCell id="30" value="30" style="rounded=0;whiteSpace=wrap;html=1;fontSize=30;" parent="1" vertex="1">
                    <mxGeometry x="124" y="681" width="120" height="60" as="geometry"/>
                </mxCell>
                <mxCell id="31" value="2" style="rounded=0;whiteSpace=wrap;html=1;fontSize=30;" parent="1" vertex="1">
                    <mxGeometry x="284" y="681" width="120" height="60" as="geometry"/>
                </mxCell>
                <mxCell id="32" value="key" style="text;html=1;strokeColor=none;fillColor=none;align=center;verticalAlign=middle;whiteSpace=wrap;rounded=0;fontSize=30;" parent="1" vertex="1">
                    <mxGeometry x="144" y="651" width="60" height="30" as="geometry"/>
                </mxCell>
                <mxCell id="33" value="value" style="text;html=1;strokeColor=none;fillColor=none;align=center;verticalAlign=middle;whiteSpace=wrap;rounded=0;fontSize=30;" parent="1" vertex="1">
                    <mxGeometry x="314" y="651" width="60" height="30" as="geometry"/>
                </mxCell>
                <mxCell id="34" value="" style="rounded=0;whiteSpace=wrap;html=1;fontSize=30;" parent="1" vertex="1">
                    <mxGeometry x="431" y="342" width="300" height="136" as="geometry"/>
                </mxCell>
                <mxCell id="35" value="40" style="rounded=0;whiteSpace=wrap;html=1;fontSize=30;" parent="1" vertex="1">
                    <mxGeometry x="441" y="388" width="120" height="60" as="geometry"/>
                </mxCell>
                <mxCell id="36" value="3" style="rounded=0;whiteSpace=wrap;html=1;fontSize=30;" parent="1" vertex="1">
                    <mxGeometry x="601" y="388" width="120" height="60" as="geometry"/>
                </mxCell>
                <mxCell id="37" value="key" style="text;html=1;strokeColor=none;fillColor=none;align=center;verticalAlign=middle;whiteSpace=wrap;rounded=0;fontSize=30;" parent="1" vertex="1">
                    <mxGeometry x="461" y="358" width="60" height="30" as="geometry"/>
                </mxCell>
                <mxCell id="38" value="value" style="text;html=1;strokeColor=none;fillColor=none;align=center;verticalAlign=middle;whiteSpace=wrap;rounded=0;fontSize=30;" parent="1" vertex="1">
                    <mxGeometry x="631" y="358" width="60" height="30" as="geometry"/>
                </mxCell>
                <mxCell id="39" value="" style="rounded=0;whiteSpace=wrap;html=1;fontSize=30;" parent="1" vertex="1">
                    <mxGeometry x="433" y="489" width="300" height="136" as="geometry"/>
                </mxCell>
                <mxCell id="40" value="50" style="rounded=0;whiteSpace=wrap;html=1;fontSize=30;" parent="1" vertex="1">
                    <mxGeometry x="443" y="535" width="120" height="60" as="geometry"/>
                </mxCell>
                <mxCell id="41" value="4" style="rounded=0;whiteSpace=wrap;html=1;fontSize=30;" parent="1" vertex="1">
                    <mxGeometry x="603" y="535" width="120" height="60" as="geometry"/>
                </mxCell>
                <mxCell id="42" value="key" style="text;html=1;strokeColor=none;fillColor=none;align=center;verticalAlign=middle;whiteSpace=wrap;rounded=0;fontSize=30;" parent="1" vertex="1">
                    <mxGeometry x="463" y="505" width="60" height="30" as="geometry"/>
                </mxCell>
                <mxCell id="43" value="value" style="text;html=1;strokeColor=none;fillColor=none;align=center;verticalAlign=middle;whiteSpace=wrap;rounded=0;fontSize=30;" parent="1" vertex="1">
                    <mxGeometry x="633" y="505" width="60" height="30" as="geometry"/>
                </mxCell>
                <mxCell id="44" value="" style="rounded=0;whiteSpace=wrap;html=1;fontSize=30;" parent="1" vertex="1">
                    <mxGeometry x="435" y="633" width="300" height="136" as="geometry"/>
                </mxCell>
                <mxCell id="45" value="60" style="rounded=0;whiteSpace=wrap;html=1;fontSize=30;" parent="1" vertex="1">
                    <mxGeometry x="445" y="679" width="120" height="60" as="geometry"/>
                </mxCell>
                <mxCell id="46" value="5" style="rounded=0;whiteSpace=wrap;html=1;fontSize=30;" parent="1" vertex="1">
                    <mxGeometry x="605" y="679" width="120" height="60" as="geometry"/>
                </mxCell>
                <mxCell id="47" value="key" style="text;html=1;strokeColor=none;fillColor=none;align=center;verticalAlign=middle;whiteSpace=wrap;rounded=0;fontSize=30;" parent="1" vertex="1">
                    <mxGeometry x="465" y="649" width="60" height="30" as="geometry"/>
                </mxCell>
                <mxCell id="48" value="value" style="text;html=1;strokeColor=none;fillColor=none;align=center;verticalAlign=middle;whiteSpace=wrap;rounded=0;fontSize=30;" parent="1" vertex="1">
                    <mxGeometry x="635" y="649" width="60" height="30" as="geometry"/>
                </mxCell>
                <mxCell id="49" value="" style="rounded=0;whiteSpace=wrap;html=1;fontSize=30;" parent="1" vertex="1">
                    <mxGeometry x="744" y="342" width="300" height="136" as="geometry"/>
                </mxCell>
                <mxCell id="50" value="70" style="rounded=0;whiteSpace=wrap;html=1;fontSize=30;" parent="1" vertex="1">
                    <mxGeometry x="754" y="388" width="120" height="60" as="geometry"/>
                </mxCell>
                <mxCell id="51" value="6" style="rounded=0;whiteSpace=wrap;html=1;fontSize=30;" parent="1" vertex="1">
                    <mxGeometry x="914" y="388" width="120" height="60" as="geometry"/>
                </mxCell>
                <mxCell id="52" value="key" style="text;html=1;strokeColor=none;fillColor=none;align=center;verticalAlign=middle;whiteSpace=wrap;rounded=0;fontSize=30;" parent="1" vertex="1">
                    <mxGeometry x="774" y="358" width="60" height="30" as="geometry"/>
                </mxCell>
                <mxCell id="53" value="value" style="text;html=1;strokeColor=none;fillColor=none;align=center;verticalAlign=middle;whiteSpace=wrap;rounded=0;fontSize=30;" parent="1" vertex="1">
                    <mxGeometry x="944" y="358" width="60" height="30" as="geometry"/>
                </mxCell>
                <mxCell id="56" value="std::unordered_map&amp;lt;int64_t, int64_t&amp;gt; rev_map;" style="text;whiteSpace=wrap;html=1;fontSize=30;" parent="1" vertex="1">
                    <mxGeometry x="21" y="260" width="699" height="60" as="geometry"/>
                </mxCell>
                <mxCell id="72" value="10" style="rounded=0;whiteSpace=wrap;html=1;fontSize=30;" parent="1" vertex="1">
                    <mxGeometry x="133" y="131" width="120" height="60" as="geometry"/>
                </mxCell>
                <mxCell id="73" value="20" style="rounded=0;whiteSpace=wrap;html=1;fontSize=30;" parent="1" vertex="1">
                    <mxGeometry x="253" y="131" width="120" height="60" as="geometry"/>
                </mxCell>
                <mxCell id="75" value="40" style="rounded=0;whiteSpace=wrap;html=1;fontSize=30;" parent="1" vertex="1">
                    <mxGeometry x="374" y="130" width="120" height="60" as="geometry"/>
                </mxCell>
                <mxCell id="77" value="0" style="text;html=1;strokeColor=none;fillColor=none;align=center;verticalAlign=middle;whiteSpace=wrap;rounded=0;fontSize=30;" parent="1" vertex="1">
                    <mxGeometry x="158" y="101" width="60" height="30" as="geometry"/>
                </mxCell>
                <mxCell id="78" value="1" style="text;html=1;strokeColor=none;fillColor=none;align=center;verticalAlign=middle;whiteSpace=wrap;rounded=0;fontSize=30;" parent="1" vertex="1">
                    <mxGeometry x="279" y="103" width="60" height="30" as="geometry"/>
                </mxCell>
                <mxCell id="79" value="2" style="text;html=1;strokeColor=none;fillColor=none;align=center;verticalAlign=middle;whiteSpace=wrap;rounded=0;fontSize=30;" parent="1" vertex="1">
                    <mxGeometry x="393" y="101" width="60" height="30" as="geometry"/>
                </mxCell>
                <mxCell id="80" value="3" style="text;html=1;strokeColor=none;fillColor=none;align=center;verticalAlign=middle;whiteSpace=wrap;rounded=0;fontSize=30;" parent="1" vertex="1">
                    <mxGeometry x="518" y="101" width="60" height="30" as="geometry"/>
                </mxCell>
                <mxCell id="81" value="4" style="text;html=1;strokeColor=none;fillColor=none;align=center;verticalAlign=middle;whiteSpace=wrap;rounded=0;fontSize=30;" parent="1" vertex="1">
                    <mxGeometry x="643" y="101" width="60" height="30" as="geometry"/>
                </mxCell>
                <mxCell id="82" value="60" style="rounded=0;whiteSpace=wrap;html=1;fontSize=30;" parent="1" vertex="1">
                    <mxGeometry x="495" y="130" width="120" height="60" as="geometry"/>
                </mxCell>
                <mxCell id="83" value="70" style="rounded=0;whiteSpace=wrap;html=1;fontSize=30;" parent="1" vertex="1">
                    <mxGeometry x="613" y="131" width="120" height="60" as="geometry"/>
                </mxCell>
            </root>
        </mxGraphModel>
    </diagram>
</mxfile>